<?xml version="1.0" standalone="no"?>
<!DOCTYPE svg PUBLIC "-//W3C//DTD SVG 20010904//EN"
 "http://www.w3.org/TR/2001/REC-SVG-20010904/DTD/svg10.dtd">
<svg version="1.0" xmlns="http://www.w3.org/2000/svg"
 width="512.000000pt" height="512.000000pt" viewBox="0 0 512.000000 512.000000"
 preserveAspectRatio="xMidYMid meet">

<g transform="translate(0.000000,512.000000) scale(0.100000,-0.100000)"
fill="#000000" stroke="none">
<path d="M2071 5084 c-5 -22 -24 -95 -41 -163 -38 -154 -49 -178 -94 -229 -49
-53 -97 -75 -268 -117 -79 -19 -152 -39 -163 -44 -26 -11 -25 -11 154 -56 162
-40 200 -55 248 -91 52 -40 82 -103 124 -266 47 -183 48 -188 58 -188 3 0 24
71 45 158 45 183 61 225 107 271 56 55 75 64 258 111 97 25 175 49 174 55 -1
5 -76 28 -166 51 -172 44 -191 51 -245 92 -52 40 -77 95 -122 272 -24 91 -46
169 -51 174 -4 5 -12 -9 -18 -30z"/>
<path d="M2866 4055 c-545 -78 -1005 -450 -1200 -970 -30 -81 -66 -218 -66
-251 0 -21 32 -54 52 -54 5 0 47 36 95 81 365 339 860 468 1378 359 364 -76
635 -274 848 -618 59 -95 172 -316 227 -442 18 -41 39 -83 48 -92 22 -25 56
-22 92 8 68 58 90 149 79 329 -21 314 -135 597 -343 853 -69 85 -79 114 -44
136 20 12 76 -1 175 -40 71 -29 99 -25 114 14 8 22 4 34 -28 81 -20 31 -91
111 -158 177 -216 219 -459 350 -764 415 -128 26 -370 34 -505 14z"/>
<path d="M1449 3867 c-94 -27 -231 -128 -371 -275 -166 -175 -291 -397 -353
-626 -13 -46 -26 -73 -41 -83 -47 -30 -74 13 -106 173 -8 39 -18 60 -34 71
-55 35 -86 -11 -134 -202 -41 -160 -54 -285 -47 -444 17 -388 164 -720 441
-997 224 -224 482 -360 796 -420 127 -24 389 -25 515 -2 113 21 252 62 313 91
40 19 47 27 50 54 4 38 -7 45 -97 62 -87 17 -248 74 -345 123 -296 149 -513
366 -672 672 -115 222 -164 409 -164 624 0 305 92 558 357 986 42 67 73 128
71 139 -7 49 -98 76 -179 54z"/>
<path d="M3230 2715 c-15 -18 -12 -28 35 -164 58 -167 78 -313 72 -516 -8
-242 -46 -403 -146 -610 -104 -214 -271 -426 -431 -546 -130 -98 -330 -184
-520 -223 -128 -26 -242 -38 -483 -49 l-232 -12 -12 -26 c-30 -62 40 -163 149
-216 35 -17 106 -44 158 -61 276 -88 577 -92 863 -12 128 36 132 36 151 9 20
-29 12 -46 -71 -138 -75 -82 -85 -107 -56 -136 21 -22 73 -14 217 32 548 176
950 661 1027 1240 15 112 6 382 -16 483 -81 366 -286 693 -566 903 -78 59
-116 70 -139 42z"/>
<path d="M2278 2651 c-156 -51 -273 -173 -313 -326 -43 -165 1 -323 124 -445
145 -145 344 -180 529 -93 67 32 158 115 199 184 92 154 80 367 -28 511 -49
67 -132 130 -206 159 -81 31 -226 36 -305 10z"/>
<path d="M4488 1394 c-3 -5 -15 -51 -28 -102 -37 -152 -63 -178 -225 -221 -60
-16 -103 -31 -95 -34 8 -4 53 -16 100 -27 95 -24 146 -49 173 -85 10 -14 29
-71 44 -127 14 -57 29 -107 33 -111 4 -5 18 34 30 85 42 172 64 195 225 236
58 15 105 30 105 33 0 4 -42 17 -92 29 -170 42 -192 62 -229 214 -23 97 -33
124 -41 110z"/>
<path d="M595 1067 c-26 -102 -32 -116 -69 -153 -37 -37 -51 -43 -154 -69 -62
-15 -111 -30 -108 -32 2 -3 48 -16 102 -29 170 -44 189 -62 229 -223 15 -61
30 -109 34 -107 4 3 18 50 31 106 36 155 62 183 189 215 137 34 146 37 131 45
-8 4 -56 17 -106 29 -154 38 -176 60 -214 221 -13 56 -27 103 -31 106 -4 2
-19 -47 -34 -109z"/>
</g>
</svg>
